<?xml version="1.0" standalone="no"?>
<!DOCTYPE svg PUBLIC "-//W3C//DTD SVG 20010904//EN"
 "http://www.w3.org/TR/2001/REC-SVG-20010904/DTD/svg10.dtd">
<svg version="1.0" xmlns="http://www.w3.org/2000/svg"
 width="932.000000pt" height="932.000000pt" viewBox="0 0 932.000000 932.000000"
 preserveAspectRatio="xMidYMid meet">
<metadata>
Created by potrace 1.14, written by Peter Selinger 2001-2017
</metadata>
<g transform="translate(0.000000,932.000000) scale(0.100000,-0.100000)"
fill="#000000" stroke="none">
<path d="M4388 9315 c-2 -2 -43 -6 -93 -10 -49 -3 -103 -8 -120 -10 -16 -2
-52 -7 -80 -10 -113 -14 -298 -46 -343 -59 -9 -3 -30 -8 -47 -11 -24 -4 -187
-46 -230 -59 -5 -2 -23 -6 -40 -11 -16 -4 -36 -13 -44 -19 -8 -6 -15 -9 -15
-7 -1 4 -66 -14 -101 -29 -11 -4 -67 -27 -125 -50 -151 -61 -355 -163 -485
-243 -89 -55 -289 -193 -315 -217 -9 -8 -29 -24 -44 -35 -16 -11 -36 -27 -45
-36 -9 -9 -47 -43 -86 -76 -171 -147 -380 -375 -529 -578 -107 -144 -279 -409
-309 -475 -4 -8 -17 -31 -28 -50 -41 -68 -185 -360 -233 -475 -7 -16 -18 -41
-24 -55 -10 -22 -32 -76 -37 -90 -1 -3 -5 -14 -10 -25 -4 -11 -14 -36 -22 -55
-24 -59 -139 -386 -144 -410 -3 -10 -8 -26 -19 -60 -6 -19 -14 -45 -16 -58 -3
-13 -11 -42 -18 -65 -13 -37 -73 -268 -81 -307 -2 -8 -12 -53 -24 -100 -20
-86 -48 -214 -55 -260 -3 -14 -5 -25 -6 -25 -1 0 -3 -9 -5 -20 -9 -61 -15 -97
-35 -200 -9 -48 -14 -79 -25 -162 -3 -21 -7 -51 -10 -68 -3 -16 -7 -48 -10
-70 -3 -22 -8 -56 -11 -75 -4 -19 -8 -55 -9 -80 -2 -25 -6 -63 -9 -85 -3 -22
-8 -69 -12 -105 -6 -64 -9 -97 -18 -215 -3 -33 -8 -105 -13 -160 -10 -127 -11
-3314 0 -3376 16 -97 65 -224 124 -317 43 -69 47 -73 118 -146 133 -137 280
-208 525 -254 46 -8 355 -9 377 -1 12 4 39 10 60 12 62 8 229 67 290 103 30
19 57 34 60 34 2 0 10 6 18 12 7 7 34 31 60 52 26 22 69 66 95 97 l48 58 17
-25 c50 -77 213 -210 315 -256 75 -35 171 -66 225 -74 11 -2 40 -7 65 -11 69
-12 415 -6 415 7 0 2 13 5 55 13 72 15 201 69 264 112 20 13 36 22 36 20 0 -9
56 41 133 119 l78 79 22 -29 c114 -149 323 -273 522 -308 17 -3 44 -9 60 -13
39 -9 376 -8 435 1 133 20 340 100 398 153 7 7 17 13 21 13 11 0 135 122 156
154 l18 27 59 -65 c74 -82 160 -146 257 -193 42 -21 81 -38 86 -39 6 -2 42
-12 80 -23 103 -29 126 -32 285 -37 215 -6 358 20 515 91 120 55 260 169 319
259 l18 29 37 -44 c152 -181 322 -278 566 -323 77 -14 341 -16 405 -2 79 16
90 19 135 31 48 13 173 72 221 105 25 16 47 30 50 30 2 0 12 8 22 18 10 9 36
33 58 53 22 20 54 53 70 75 16 21 32 41 35 44 33 27 143 265 155 335 2 11 8
38 13 60 13 48 14 3138 2 3203 -5 24 -4 45 0 48 5 3 7 10 4 15 -4 5 -8 44 -11
87 -6 107 -20 285 -29 372 -11 104 -24 220 -30 265 -2 17 -6 50 -9 75 -6 45
-11 85 -22 150 -3 19 -8 51 -11 70 -8 59 -10 74 -16 100 -3 14 -16 81 -27 150
-12 69 -26 139 -30 155 -5 17 -11 44 -14 60 -3 25 -15 77 -30 140 -2 6 -6 28
-11 50 -4 22 -10 44 -13 50 -3 5 -7 18 -8 30 -2 11 -12 56 -24 100 -12 44 -23
85 -24 90 -52 204 -215 675 -287 832 -10 24 -19 45 -19 48 0 3 -34 76 -75 162
-41 86 -75 158 -75 160 0 2 -11 21 -25 43 -14 22 -23 40 -20 40 3 0 -6 17 -20
37 -14 21 -25 41 -25 44 0 21 -266 435 -334 521 -12 14 -32 41 -46 59 -14 18
-32 40 -41 49 -8 9 -22 25 -30 37 -56 79 -333 366 -438 453 -30 25 -70 59 -90
75 -20 17 -63 51 -96 75 -33 25 -61 48 -63 53 -2 4 -8 7 -13 7 -8 0 -99 59
-109 71 -10 12 -248 149 -259 149 -6 0 -11 5 -11 10 0 6 -9 10 -20 10 -11 0
-20 5 -20 10 0 6 -4 10 -9 10 -4 0 -48 19 -97 42 -49 23 -91 43 -94 43 -3 1
-16 6 -30 12 -56 24 -85 36 -90 37 -3 1 -21 7 -40 15 -19 7 -44 16 -55 21 -11
4 -38 13 -60 19 -22 7 -49 16 -60 21 -20 8 -166 49 -195 55 -8 2 -33 8 -55 14
-86 22 -325 66 -420 76 -27 3 -70 8 -95 11 -25 3 -70 8 -100 11 -67 5 -647 12
-652 8z m626 -329 c62 -6 163 -17 196 -22 14 -2 41 -5 60 -8 19 -3 49 -7 65
-10 17 -4 46 -9 65 -11 19 -3 46 -8 60 -12 14 -3 31 -7 39 -9 7 -1 34 -8 60
-14 25 -6 55 -13 66 -15 24 -5 144 -40 165 -47 8 -3 53 -18 100 -33 112 -37
250 -95 385 -162 100 -50 235 -125 260 -146 6 -4 48 -33 95 -64 145 -96 309
-232 452 -376 88 -89 191 -202 216 -239 9 -13 24 -29 34 -36 10 -7 18 -17 18
-22 0 -5 16 -26 35 -47 19 -21 35 -43 35 -49 0 -7 7 -14 15 -18 8 -3 15 -12
15 -20 0 -8 4 -16 8 -18 12 -4 152 -213 152 -226 0 -6 4 -12 8 -14 7 -3 72
-104 72 -112 0 -2 21 -41 48 -87 43 -76 146 -282 185 -369 8 -19 24 -55 35
-80 52 -116 148 -371 144 -382 -1 -5 3 -8 10 -8 6 0 9 -3 6 -6 -3 -3 7 -42 22
-87 24 -69 59 -181 66 -209 1 -5 2 -9 4 -10 1 -2 3 -10 5 -18 5 -20 20 -72 40
-145 19 -69 65 -251 71 -280 2 -11 11 -51 20 -90 8 -38 17 -81 19 -93 2 -13 8
-45 14 -70 5 -26 13 -65 17 -87 4 -22 8 -46 10 -53 1 -8 8 -46 14 -85 6 -40
14 -83 16 -97 2 -14 7 -41 9 -60 3 -19 8 -50 11 -68 7 -42 13 -95 20 -157 9
-84 12 -108 17 -150 8 -63 19 -166 22 -210 1 -22 6 -76 10 -120 3 -44 9 -111
12 -150 10 -145 12 -3239 1 -3280 -5 -22 -12 -48 -14 -58 -6 -33 -84 -187 -94
-187 -6 0 -10 -5 -10 -11 0 -32 -184 -171 -245 -186 -5 -1 -35 -9 -65 -18 -67
-20 -286 -28 -355 -14 -27 6 -60 12 -73 15 -90 18 -208 89 -280 169 -43 48
-115 174 -127 222 -3 10 -11 45 -19 78 -20 85 -32 112 -63 140 -54 47 -135 50
-195 9 -45 -32 -53 -48 -74 -154 -18 -87 -17 -86 -33 -125 -65 -166 -179 -274
-346 -328 -79 -26 -102 -29 -245 -32 -126 -3 -149 0 -285 30 -78 18 -265 147
-265 184 0 6 -4 11 -9 11 -4 0 -22 26 -38 58 -41 77 -60 136 -69 217 -12 98
-74 165 -156 167 -96 2 -152 -51 -168 -159 -18 -122 -22 -137 -43 -188 -59
-143 -192 -255 -347 -293 -97 -24 -120 -26 -265 -26 -196 0 -303 25 -420 99
-122 78 -206 220 -221 379 -10 101 -38 152 -101 178 -36 14 -110 13 -128 -2
-8 -7 -15 -10 -15 -7 0 3 -11 -4 -24 -16 -31 -29 -53 -73 -59 -122 -35 -247
-196 -427 -437 -491 -130 -34 -424 -19 -495 24 -5 4 -15 7 -22 8 -31 5 -123
68 -170 116 -87 88 -152 218 -168 333 -9 62 -25 97 -58 127 -96 89 -248 31
-264 -100 -6 -52 -34 -165 -43 -177 -5 -5 -8 -12 -7 -15 5 -16 -71 -128 -118
-174 -78 -76 -175 -124 -310 -152 -50 -10 -285 -12 -324 -2 -20 5 -49 11 -66
13 -83 13 -206 79 -276 149 -33 32 -59 64 -59 72 0 8 -3 14 -8 14 -6 0 -51 87
-59 115 -35 129 -34 78 -30 1739 3 881 7 1628 11 1661 6 65 15 167 21 255 4
55 12 130 21 205 3 22 6 56 9 75 8 79 17 154 20 169 1 9 6 36 10 61 3 25 9 59
12 75 3 17 6 44 8 60 2 17 6 40 8 51 3 12 8 39 11 60 4 22 11 62 16 89 5 28
12 66 15 85 4 19 15 76 25 125 11 50 22 101 24 115 3 14 5 25 6 25 1 0 3 7 5
15 28 143 137 531 192 685 14 39 26 77 28 85 5 24 104 281 126 329 11 24 29
66 40 94 34 87 164 345 240 477 133 232 294 462 451 645 49 57 304 313 344
345 29 23 188 150 199 159 6 4 24 16 40 27 17 10 39 27 49 36 11 10 25 18 32
18 7 0 14 4 16 8 7 19 334 200 408 227 8 2 22 9 30 14 8 5 26 13 40 19 14 5
49 19 77 31 55 22 217 79 243 86 8 2 42 11 75 20 113 31 246 61 308 69 21 3
41 7 45 9 4 3 31 7 60 11 28 3 68 8 87 11 19 3 50 7 68 10 17 2 77 7 132 11
55 3 101 7 103 9 5 4 534 -4 586 -9z"/>
<path d="M5507 7884 c-2 -3 -20 -6 -38 -8 -67 -7 -125 -17 -184 -33 -33 -8
-67 -17 -75 -18 -8 -2 -16 -4 -17 -5 -2 -2 -7 -4 -13 -5 -5 -1 -11 -3 -12 -5
-2 -1 -10 -3 -18 -5 -56 -12 -301 -122 -308 -137 -2 -5 -8 -8 -14 -8 -5 0 -42
-21 -81 -46 -268 -173 -497 -433 -630 -718 -73 -155 -137 -370 -152 -511 -4
-33 -8 -71 -11 -85 -5 -33 -5 -268 0 -300 3 -14 7 -47 11 -75 58 -477 346
-941 750 -1211 79 -52 269 -155 310 -167 11 -3 59 -19 107 -36 180 -63 367
-94 563 -94 73 0 206 10 246 19 13 2 40 7 59 10 33 5 88 18 135 30 11 3 25 6
30 7 6 2 16 6 23 10 6 5 12 6 12 2 0 -3 9 -1 19 5 20 10 22 8 88 -110 11 -19
60 -102 108 -185 191 -326 293 -502 312 -535 11 -19 41 -70 67 -113 25 -43 46
-81 46 -84 0 -2 -13 -24 -30 -48 -16 -24 -30 -48 -30 -54 0 -6 -4 -11 -10 -11
-5 0 -9 -3 -8 -7 1 -5 -8 -39 -20 -77 -30 -92 -32 -107 -33 -211 0 -96 18
-205 51 -302 20 -57 90 -213 100 -223 3 -3 16 -25 29 -50 70 -131 250 -358
304 -383 106 -51 234 30 230 143 -3 61 -8 69 -120 200 -18 20 -33 43 -33 49 0
6 -3 11 -8 11 -9 0 -115 166 -112 176 1 4 -2 10 -7 13 -4 3 -19 29 -32 56 -13
28 -27 58 -32 67 -27 53 -48 168 -46 253 2 78 6 98 32 148 48 97 153 177 252
193 118 20 268 -7 420 -77 35 -16 68 -29 73 -29 6 0 10 -4 10 -10 0 -5 6 -10
14 -10 7 0 25 -9 39 -20 15 -12 28 -20 29 -19 4 4 62 -34 70 -46 4 -5 8 -6 8
-2 0 4 26 -12 57 -35 32 -24 62 -46 68 -50 5 -5 29 -23 53 -43 47 -37 93 -51
148 -42 41 7 104 51 104 73 0 7 4 14 8 14 10 0 12 15 13 77 1 58 -29 98 -125
170 -328 247 -621 370 -896 377 -88 3 -205 -15 -249 -39 -30 -15 -28 -17 -79
74 -13 25 -33 58 -43 72 -10 15 -23 37 -29 50 -6 13 -19 38 -30 54 -10 17 -25
41 -33 55 -7 14 -50 88 -95 164 -45 76 -82 142 -82 147 0 4 -3 9 -7 11 -10 4
-41 56 -54 91 -6 15 -15 27 -20 27 -5 0 -9 9 -9 20 0 11 -4 20 -8 20 -5 0 -17
18 -28 40 -10 22 -22 40 -25 40 -3 0 -11 16 -19 35 -8 19 -17 35 -22 35 -16 0
4 27 35 45 32 19 147 103 201 146 63 52 182 177 241 254 11 14 25 31 32 39 17
20 85 126 112 176 13 25 29 48 35 52 6 4 7 8 3 8 -5 0 0 15 11 33 12 17 21 35
22 39 0 4 9 28 20 54 11 25 20 48 20 51 0 3 7 19 15 36 8 18 24 68 35 112 12
44 23 85 24 90 4 13 16 92 21 130 2 17 4 30 5 30 5 0 11 114 12 215 0 138 -8
233 -28 320 -3 14 -7 39 -9 55 -2 17 -4 30 -5 30 -1 0 -3 7 -5 15 -25 126
-119 351 -202 482 -12 21 -23 42 -23 47 0 5 -3 11 -8 13 -4 2 -24 26 -44 55
-95 133 -226 268 -356 368 -7 6 -19 16 -27 23 -7 6 -16 12 -20 12 -5 0 -64 39
-75 50 -37 37 -358 184 -424 194 -6 1 -15 4 -21 7 -5 3 -37 11 -70 19 -33 7
-75 16 -94 21 -19 4 -38 6 -43 3 -4 -3 -8 -2 -8 3 0 4 -12 9 -27 10 -61 5
-422 11 -426 7z m373 -367 c14 -3 53 -11 87 -17 54 -9 158 -39 203 -57 8 -4
17 -7 20 -8 34 -11 136 -59 165 -78 166 -103 200 -129 304 -230 54 -53 167
-195 208 -262 64 -106 152 -329 167 -425 3 -19 8 -46 10 -59 23 -110 23 -342
1 -451 -3 -14 -8 -38 -10 -55 -3 -16 -8 -38 -11 -47 -3 -9 -7 -25 -9 -35 -20
-96 -109 -291 -182 -401 -42 -63 -117 -154 -173 -212 -91 -93 -348 -270 -392
-270 -9 0 -18 -4 -20 -8 -7 -19 -238 -91 -338 -106 -96 -14 -310 -25 -310 -16
0 3 -12 5 -27 5 -111 2 -337 58 -443 110 -195 96 -278 153 -405 280 -94 93
-114 116 -155 175 -13 19 -27 37 -30 40 -17 16 -129 234 -134 261 -1 8 -7 23
-13 35 -14 25 -59 200 -69 269 -14 97 -8 384 11 463 3 12 7 31 9 42 66 295
263 603 501 780 33 25 62 48 63 53 2 4 10 7 18 7 8 0 14 4 14 8 0 8 71 46 79
42 2 -1 7 3 10 8 9 14 124 66 211 95 108 37 159 49 260 63 25 3 46 7 48 9 6 5
306 -2 332 -8z"/>
<path d="M4663 6955 c-38 -20 -58 -40 -100 -104 -42 -63 -118 -204 -123 -226
0 -3 -2 -10 -5 -17 -63 -192 -77 -273 -77 -443 -1 -100 9 -221 18 -236 2 -4 6
-24 10 -45 9 -61 73 -246 92 -267 54 -60 140 -62 203 -6 46 42 55 94 27 167
-12 31 -23 62 -24 67 -1 6 -9 37 -17 70 -9 33 -17 76 -20 96 -2 20 -8 42 -11
48 -4 6 -2 11 4 11 7 0 8 6 2 18 -18 36 -1 226 30 337 6 22 12 46 14 53 5 29
95 200 126 242 18 25 38 56 44 70 25 59 -30 162 -93 176 -16 3 -33 7 -40 9 -6
2 -33 -7 -60 -20z"/>
<path d="M5678 6755 c-1 -2 -23 -6 -47 -10 -46 -7 -137 -47 -193 -86 -47 -32
-145 -134 -153 -158 -3 -12 -10 -21 -14 -21 -4 0 -16 -19 -27 -42 -10 -24 -21
-45 -24 -48 -8 -6 -38 -103 -54 -172 -12 -52 -13 -230 -2 -278 4 -14 9 -38 12
-54 7 -44 60 -166 95 -222 41 -66 153 -172 217 -207 79 -43 170 -65 259 -62
43 1 88 5 101 9 12 3 31 8 42 10 19 5 82 34 131 61 30 17 148 130 166 160 7
11 24 39 39 63 25 41 72 164 79 206 2 12 7 39 10 61 16 94 7 220 -22 325 -16
56 -60 161 -72 170 -3 3 -12 17 -20 32 -23 44 -122 142 -182 181 -77 49 -168
78 -260 82 -42 2 -79 2 -81 0z"/>
<path d="M2818 6665 c-26 -7 -49 -10 -52 -7 -4 3 -6 0 -6 -6 0 -7 -7 -12 -15
-12 -35 0 -125 -60 -195 -131 -175 -175 -242 -427 -186 -698 15 -72 99 -251
117 -251 5 0 9 -6 9 -13 0 -16 111 -127 128 -127 7 0 12 -4 12 -9 0 -17 122
-73 194 -88 41 -8 161 -9 207 0 67 12 147 48 204 91 43 32 125 112 125 121 0
3 8 15 18 25 41 44 103 189 117 270 4 25 9 54 12 65 13 62 -1 257 -24 315 -3
8 -8 23 -10 33 -6 32 -74 167 -84 167 -5 0 -9 6 -9 13 0 19 -108 129 -161 164
-84 55 -170 83 -266 87 -50 2 -109 -2 -135 -9z"/>
</g>
</svg>
