<svg id="Layer_1" data-name="Layer 1" xmlns="http://www.w3.org/2000/svg" viewBox="0 0 665 319.54"><defs><style>.cls-1,.cls-2,.cls-3{fill:none;stroke:#000;stroke-linecap:round;stroke-linejoin:round;}.cls-1{stroke-width:8px;}.cls-2{stroke-width:9px;}.cls-3{stroke-width:7px;}.cls-4{font-size:108px;font-family:AveriaSerifLibre-Regular, Averia Serif Libre;letter-spacing:-0.03em;}.cls-5{letter-spacing:-0.03em;}.cls-6{letter-spacing:-0.03em;}.cls-7{letter-spacing:-0.03em;}</style></defs><path id="body" class="cls-1" d="M122,63.46c105.83,0,100.92,140.73,100.92,140.73v67S221.31,288,202.7,288s-20.19-16.85-20.19-16.85S181.88,288,162.33,288s-20.19-16.85-20.19-16.85S142.45,288,122,288s-20.19-16.85-20.19-16.85S100.54,288,81.59,288,61.4,271.15,61.4,271.15,60.84,288,41.22,288,21,271.15,21,271.15V204.84S16.13,63.46,122,63.46Z" transform="translate(-17 -59.46)"/><ellipse id="eye" cx="61.78" cy="82.96" rx="14.58" ry="17.04"/><ellipse id="eye-2" data-name="eye" cx="131.86" cy="80.98" rx="14.58" ry="17.04"/><path id="magglass" class="cls-2" d="M186.39,138.45a38.83,38.83,0,1,1-38.83-38.83A38.77,38.77,0,0,1,186.39,138.45Z" transform="translate(-17 -59.46)"/><path class="cls-3" d="M123.51,121.54s-10,11.31-3.44,28" transform="translate(-17 -59.46)"/><text class="cls-4" transform="translate(219.64 141.2)">C<tspan class="cls-5" x="68.22" y="0">ostume</tspan><tspan class="cls-6"><tspan x="-7.64" y="80">D</tspan><tspan class="cls-7" x="68.6" y="80">ata</tspan><tspan class="cls-5" x="211.3" y="80">base</tspan></tspan></text><line class="cls-2" x1="163.5" y1="144.04" x2="146.29" y2="114.5"/><path class="cls-1" d="M186.88,235.89s-17.37-18.24-6.08-29.53,31.27,6.08,31.27,6.08" transform="translate(-17 -59.46)"/></svg>