<svg id="Layer_1" data-name="Layer 1" xmlns="http://www.w3.org/2000/svg" viewBox="0 0 347 346"><defs><style>.cls-1,.cls-2{fill:#fff;}.cls-2{stroke:#000;stroke-linecap:round;stroke-miterlimit:10;stroke-width:35px;}</style></defs><path class="cls-1" d="M137.5,254.5c-66.17,0-120-52.93-120-118s53.83-118,120-118,120,52.93,120,118a116,116,0,0,1-37.37,85.57A120.6,120.6,0,0,1,137.5,254.5Z" transform="translate(0 -1)"/><path d="M137.5,36C194,36,240,81.08,240,136.5a98.69,98.69,0,0,1-31.82,72.78A103.1,103.1,0,0,1,137.5,237C81,237,35,191.92,35,136.5S81,36,137.5,36m0-35C61.56,1,0,61.67,0,136.5S61.56,272,137.5,272a138.09,138.09,0,0,0,94.57-37.14A134.19,134.19,0,0,0,275,136.5C275,61.67,213.44,1,137.5,1Z" transform="translate(0 -1)"/><line class="cls-2" x1="329.5" y1="328.5" x2="232.07" y2="233.86"/></svg>