<?xml version="1.0" encoding="utf-8"?>
<!-- Generator: Adobe Illustrator 25.1.0, SVG Export Plug-In . SVG Version: 6.00 Build 0)  -->
<svg version="1.1" id="Layer_1" xmlns="http://www.w3.org/2000/svg" xmlns:xlink="http://www.w3.org/1999/xlink" x="0px" y="0px"
	 viewBox="0 0 216 216" style="enable-background:new 0 0 216 216;" xml:space="preserve">
<style type="text/css">
	.st0{fill:#373737;}
</style>
<g id="Layer_2_1_">
	<g id="Layer_1-2">
		<path class="st0" d="M208.8,174.5l-67-67l67-67c8.1-8.1,8.1-21.2,0-29.4l-5.5-5.5c-8.1-8.1-21.2-8.1-29.4,0l-67,67l-67-67
			c-8.1-8.1-21.2-8.1-29.4,0l-5.5,5.5C-3,19.4-3,32.5,5.1,40.6l67,67l-67,67c-8.1,8.1-8.1,21.2,0,29.4l5.5,5.5
			c8.1,8.1,21.2,8.1,29.4,0l67-67l67,67c8.1,8.1,21.2,8.1,29.4,0l5.5-5.5C216.9,195.8,216.9,182.6,208.8,174.5z"/>
	</g>
</g>
</svg>
