<svg xmlns="http://www.w3.org/2000/svg" viewBox="0 0 209.95 232.57"><defs><style>.cls-1{fill:none;stroke:#000;stroke-linecap:round;stroke-linejoin:round;stroke-width:8px;}</style></defs><g id="Layer_2" data-name="Layer 2"><g id="Layer_1-2" data-name="Layer 1"><g id="Layer_2-2" data-name="Layer 2"><g id="Layer_1-2-2" data-name="Layer 1-2"><path id="body" class="cls-1" d="M105,4C210.82,4,205.91,144.73,205.91,144.73v67s-1.57,16.84-20.18,16.84-20.19-16.84-20.19-16.84-.63,16.84-20.18,16.84-20.19-16.84-20.19-16.84.31,16.84-20.18,16.84S84.8,211.7,84.8,211.7s-1.23,16.84-20.18,16.84S44.43,211.7,44.43,211.7s-.56,16.84-20.18,16.84S4,211.7,4,211.7V145.38S-.84,4,105,4Z"/><ellipse id="eye" cx="68.81" cy="86.96" rx="14.58" ry="17.04"/><ellipse id="eye-2" cx="139.89" cy="84.98" rx="14.58" ry="17.04"/></g></g></g></g></svg>