<svg xmlns="http://www.w3.org/2000/svg" viewBox="0 0 665 245.72"><defs><style>.cls-1{font-size:108px;font-family:AveriaSerifLibre-Regular, Averia Serif Libre;letter-spacing:-0.03em;}.cls-2{letter-spacing:-0.03em;}.cls-3{letter-spacing:-0.03em;}.cls-4{letter-spacing:-0.03em;}.cls-5,.cls-6,.cls-7{fill:none;stroke:#000;stroke-linecap:round;stroke-linejoin:round;}.cls-5{stroke-width:8px;}.cls-6{stroke-width:9px;}.cls-7{stroke-width:7px;}</style></defs><g id="Layer_2" data-name="Layer 2"><g id="Layer_1-2" data-name="Layer 1"><text class="cls-1" transform="translate(219.64 141.2)">C<tspan class="cls-2" x="68.22" y="0">ostume</tspan><tspan class="cls-3"><tspan x="-7.64" y="80">D</tspan><tspan class="cls-4" x="68.6" y="80">ata</tspan><tspan class="cls-2" x="211.3" y="80">base</tspan></tspan></text><path id="body" class="cls-5" d="M105,4C210.79,4,205.88,144.73,205.88,144.73v67s-1.57,16.84-20.18,16.84-20.19-16.84-20.19-16.84-.63,16.84-20.18,16.84-20.19-16.84-20.19-16.84.31,16.84-20.18,16.84S84.77,211.7,84.77,211.7s-1.23,16.84-20.18,16.84S44.4,211.7,44.4,211.7s-.56,16.84-20.18,16.84S4,211.7,4,211.7V145.38S-.87,4,105,4Z"/><ellipse id="eye" cx="61.78" cy="82.96" rx="14.58" ry="17.04"/><ellipse id="eye-2" data-name="eye" cx="131.86" cy="80.98" rx="14.58" ry="17.04"/><path id="magglass" class="cls-6" d="M169.39,79a38.83,38.83,0,1,1-38.83-38.83A38.77,38.77,0,0,1,169.39,79Z"/><path class="cls-7" d="M106.51,62.08s-10,11.31-3.44,28"/><line class="cls-6" x1="163.5" y1="144.04" x2="146.29" y2="114.5"/><path class="cls-5" d="M169.88,176.43s-17.37-18.24-6.08-29.53S195.07,153,195.07,153"/></g></g></svg>